<?xml version="1.0" encoding="utf-8"?>
<!-- Generator: Adobe Illustrator 21.1.0, SVG Export Plug-In . SVG Version: 6.00 Build 0)  -->
<svg version="1.1" id="Capa_1" xmlns="http://www.w3.org/2000/svg" xmlns:xlink="http://www.w3.org/1999/xlink" x="0px" y="0px"
	 viewBox="0 0 512 512" style="enable-background:new 0 0 512 512;" xml:space="preserve">
<style type="text/css">
	.st0{fill:#FFFFFF;}
</style>
<g>
	<g>
		<path class="st0" d="M468.9,232.8l-1.1-0.4L295.2,40.6c-3.7-4.1-7.9-6.2-12.6-6.2c-9.9,0-19.5,9.7-20.1,20.4l-0.3,1.6
			c-0.2,0.7-0.4,1.4-0.4,2.2c-2.5,24.4-3,48.3-3.2,68.5l-0.1,5.4H49.2c-11.7,0-16.1,7.7-17.6,12.2l-0.4,1.1l-0.7,0.8
			c-3,3.3-4.5,7.5-4.5,12.4v190.1c0,4.9,1.4,9.1,4.4,12.4l0.7,0.8l0.4,1c1.6,4.5,6,12.2,17.6,12.2h209.4l0.1,5.4
			c0.2,20.1,0.7,44,3.2,68.4c0.1,0.8,0.3,1.5,0.4,2.2l0.3,1.7c0.6,10.7,10.2,20.4,20.1,20.4c4.6,0,8.8-2.1,12.6-6.2l172.6-191.8
			l1.1-0.4c8.1-3.7,13.6-12.4,13.2-20.8V254v-0.4C482.5,245.2,477,236.5,468.9,232.8z M298.3,405.2l-0.3-14.1
			c-0.2-11.8-0.3-23.6-0.3-35.4c0-13-9.9-18.9-19.7-18.9v-5.5l-0.1,5.5h-0.7l-0.6-0.2c-1.9-0.4-3.6-0.7-5.3-0.7l-205.9,0V171.7
			h206.1c1.7,0,3.4-0.2,5.3-0.7l0.7-0.2h0.6c10,0,19.9-5.9,19.9-18.9c0-11.8,0.1-23.6,0.3-35.4l0.3-14.1L434.4,254L298.3,405.2z"/>
	</g>
</g>
</svg>
