<?xml version="1.0" encoding="utf-8"?>
<!-- Generator: Adobe Illustrator 21.1.0, SVG Export Plug-In . SVG Version: 6.00 Build 0)  -->
<svg version="1.1" id="Capa_1" xmlns="http://www.w3.org/2000/svg" xmlns:xlink="http://www.w3.org/1999/xlink" x="0px" y="0px"
	 viewBox="0 0 512 512" style="enable-background:new 0 0 512 512;" xml:space="preserve">
<style type="text/css">
	.st0{fill:#FFFFFF;}
</style>
<g>
	<g>
		<path class="st0" d="M14.9,279.8l1.2,0.5l193.8,215.4c4.2,4.6,8.9,7,14.1,7c11.1,0,21.9-10.9,22.6-22.9l0.3-1.8
			c0.2-0.8,0.4-1.6,0.5-2.5c2.8-27.4,3.4-54.2,3.6-76.9l0.1-6.1h235c13.1,0,18.1-8.6,19.8-13.7l0.4-1.2l0.8-0.9
			c3.4-3.7,5-8.4,5-13.9V149.2c0-5.5-1.6-10.2-4.9-13.9l-0.8-0.9l-0.4-1.1c-1.8-5.1-6.7-13.7-19.8-13.7h-235l-0.1-6.1
			c-0.2-22.6-0.8-49.4-3.6-76.8c-0.1-0.9-0.3-1.7-0.5-2.5l-0.3-1.9c-0.7-12-11.4-22.9-22.6-22.9c-5.2,0-9.9,2.4-14.1,7L16.1,231.7
			l-1.2,0.5c-9.1,4.1-15.3,13.9-14.8,23.4v0.4v0.4C-0.4,265.9,5.8,275.7,14.9,279.8z M206.4,86.2l0.3,15.8
			c0.2,13.2,0.3,26.5,0.3,39.7c0,14.6,11.1,21.2,22.1,21.2v6.2l0.1-6.2h0.8l0.7,0.2c2.1,0.5,4,0.8,5.9,0.8h231.2v184.4H236.6
			c-1.9,0-3.8,0.2-5.9,0.8l-0.8,0.2h-0.8c-11.2,0-22.3,6.6-22.3,21.2c0,13.2-0.1,26.5-0.3,39.7l-0.3,15.8L53.6,256L206.4,86.2z"/>
	</g>
</g>
</svg>
