<?xml version="1.0" encoding="utf-8"?>
<!-- Generator: Adobe Illustrator 21.1.0, SVG Export Plug-In . SVG Version: 6.00 Build 0)  -->
<svg version="1.1" id="Capa_1" xmlns="http://www.w3.org/2000/svg" xmlns:xlink="http://www.w3.org/1999/xlink" x="0px" y="0px"
	 viewBox="0 0 512 512" style="enable-background:new 0 0 512 512;" xml:space="preserve">
<style type="text/css">
	.st0{fill:#FFFFFF;}
</style>
<g>
	<g>
		<path class="st0" d="M497.3,232.3l-1.2-0.5L302.3,16.4c-4.2-4.6-8.9-7-14.1-7c-11.1,0-21.9,10.9-22.6,22.9l-0.3,1.8
			c-0.2,0.8-0.4,1.6-0.5,2.5c-2.8,27.4-3.4,54.2-3.6,76.9l-0.1,6.1h-235c-13.1,0-18.1,8.6-19.8,13.7l-0.4,1.2l-0.8,0.9
			c-3.4,3.7-5,8.4-5,13.9l0,213.6c0,5.5,1.6,10.2,4.9,13.9l0.8,0.9l0.4,1.1c1.8,5.1,6.7,13.7,19.8,13.7h235l0.1,6.1
			c0.2,22.6,0.8,49.4,3.6,76.8c0.1,0.9,0.3,1.7,0.5,2.5l0.3,1.9c0.7,12,11.4,22.9,22.6,22.9c5.2,0,9.9-2.4,14.1-7l193.9-215.3
			l1.2-0.5c9.1-4.1,15.3-13.9,14.8-23.4v-0.4v-0.4C512.6,246.2,506.4,236.4,497.3,232.3z M305.8,425.9l-0.3-15.8
			c-0.2-13.2-0.3-26.5-0.3-39.7c0-14.6-11.1-21.2-22.1-21.2V343l-0.1,6.2h-0.8l-0.7-0.2c-2.1-0.5-4-0.8-5.9-0.8H44.4V163.8h231.2
			c1.9,0,3.8-0.2,5.9-0.8l0.8-0.2h0.8c11.2,0,22.3-6.6,22.3-21.2c0-13.2,0.1-26.5,0.3-39.7l0.3-15.8l152.6,170L305.8,425.9z"/>
	</g>
</g>
</svg>
