<?xml version="1.0" encoding="utf-8"?>
<!-- Generator: Adobe Illustrator 21.1.0, SVG Export Plug-In . SVG Version: 6.00 Build 0)  -->
<svg version="1.1" id="Capa_1" xmlns="http://www.w3.org/2000/svg" xmlns:xlink="http://www.w3.org/1999/xlink" x="0px" y="0px"
	 viewBox="0 0 512 512" style="enable-background:new 0 0 512 512;" xml:space="preserve">
<style type="text/css">
	.st0{fill:#FFFFFF;}
</style>
<g>
	<g>
		<path class="st0" d="M279.8,497.2l0.5-1.2l215.4-193.8c4.6-4.2,7-8.9,7-14.1c0-11.1-10.9-21.9-22.9-22.6l-1.8-0.3
			c-0.8-0.2-1.6-0.4-2.5-0.5c-27.4-2.8-54.2-3.4-76.9-3.6l-6.1-0.1v-235c0-13.1-8.6-18.1-13.7-19.8l-1.2-0.4l-0.9-0.8
			C373,1.6,368.3,0,362.8,0H149.2c-5.5,0-10.2,1.6-13.9,4.9l-0.9,0.8l-1.1,0.4c-5.1,1.8-13.7,6.7-13.7,19.8v235l-6.1,0.1
			c-22.6,0.2-49.4,0.8-76.8,3.6c-0.9,0.1-1.7,0.3-2.5,0.5l-1.9,0.3c-12,0.7-22.9,11.4-22.9,22.6c0,5.2,2.4,9.9,7,14.1L231.7,496
			l0.5,1.2c4.1,9.1,13.9,15.3,23.4,14.8l0.4,0l0.4,0C265.9,512.5,275.7,506.3,279.8,497.2z M86.2,305.7l15.8-0.3
			c13.2-0.2,26.5-0.3,39.7-0.3c14.6,0,21.2-11.1,21.2-22.1h6.2l-6.2-0.1l0-0.8l0.2-0.7c0.5-2.1,0.8-4,0.8-5.9V44.3h184.4v231.2
			c0,1.9,0.2,3.8,0.8,5.9l0.2,0.8v0.8c0,11.2,6.6,22.3,21.2,22.3c13.2,0,26.5,0.1,39.7,0.3l15.8,0.3L256,458.5L86.2,305.7z"/>
	</g>
</g>
</svg>
